<?xml version="1.0" encoding="utf-8"?>
<!-- Generator: Adobe Illustrator 16.0.0, SVG Export Plug-In . SVG Version: 6.00 Build 0)  -->
<!DOCTYPE svg PUBLIC "-//W3C//DTD SVG 1.1//EN" "http://www.w3.org/Graphics/SVG/1.1/DTD/svg11.dtd">
<svg version="1.1" id="Layer_1" xmlns="http://www.w3.org/2000/svg" xmlns:xlink="http://www.w3.org/1999/xlink" x="0px" y="0px"
	 width="282px" height="50px" viewBox="0 0 282 50" enable-background="new 0 0 282 50" xml:space="preserve">
<path fill="#00C1FF" d="M52.48,22.922c-0.566-2.825-1.837-5.352-3.607-7.418V7.908H23.617v8.125
	c-0.285,0.362-0.561,0.733-0.817,1.122c-0.798-0.188-1.615-0.283-2.435-0.283c-5.857,0-10.622,4.765-10.622,10.621
	c0,0.493,0.035,0.988,0.104,1.479c-3.77,0.91-6.524,4.339-6.524,8.274c0,4.698,3.822,8.521,8.521,8.521h39.688
	c1.369,0,2.735-0.337,3.9-0.95c4.194-1.825,6.905-5.959,6.905-10.531C62.336,28.503,58.139,23.716,52.48,22.922z M54.775,43.448
	c-1.012,0.531-2.104,0.801-3.244,0.801H11.843c-3.86,0-7.001-3.141-7.001-7.002c0-3.45,2.576-6.425,5.992-6.92l0.805-0.115
	l-0.171-0.795c-0.136-0.635-0.205-1.281-0.205-1.924c0-5.019,4.083-9.102,9.103-9.102c0.867,0,1.73,0.124,2.564,0.368l0.558,0.164
	l0.303-0.495c0.508-0.829,1.086-1.595,1.724-2.294h21.874c1.886,2.059,3.213,4.66,3.698,7.602l0.095,0.58l0.586,0.053
	c5.16,0.467,9.051,4.731,9.051,9.918C60.817,38.254,58.465,41.841,54.775,43.448z M60.359,6.153H11.125V4h50.241v0.215v1.938v4.073
	l2.278,7.344h-5.562l2.278-7.344V6.153z M53.423,31.729c-0.751,0-1.362,0.571-1.439,1.302L46.1,34.843
	c-0.513-1.078-1.494-1.889-2.684-2.168l0.564-6.464c0.657-0.191,1.14-0.791,1.14-1.51c0-0.873-0.707-1.58-1.58-1.58
	c-0.61,0-1.132,0.349-1.396,0.854l-7.454-0.812c-0.107-1.788-1.577-3.208-3.391-3.208c-1.884,0-3.412,1.527-3.412,3.412
	c0,1.298,0.733,2.413,1.799,2.99l-2.23,6.598c-0.095-0.01-0.188-0.028-0.286-0.028c-0.514,0-0.989,0.152-1.395,0.405l-4.203-4.315
	c0.052-0.142,0.085-0.294,0.085-0.454c0-0.73-0.592-1.322-1.322-1.322c-0.73,0-1.323,0.592-1.323,1.322s0.592,1.322,1.323,1.322
	c0.148,0,0.288-0.029,0.42-0.074l4.2,4.312c-0.276,0.418-0.439,0.918-0.439,1.457c0,0.006,0.001,0.01,0.001,0.016l-9.194,2.078
	c-0.321-0.535-0.901-0.898-1.571-0.898c-1.015,0-1.837,0.823-1.837,1.838c0,1.014,0.822,1.837,1.837,1.837
	c0.956,0,1.731-0.732,1.82-1.665l9.202-2.08c0.424,0.9,1.333,1.528,2.395,1.528c1.21,0,2.219-0.815,2.538-1.923l8.834,0.559
	c0.164,2.047,1.874,3.658,3.964,3.658c2.198,0,3.98-1.781,3.98-3.979c0-0.21-0.021-0.413-0.052-0.614l5.884-1.813
	c0.267,0.314,0.66,0.519,1.104,0.519c0.803,0,1.455-0.652,1.455-1.455S54.227,31.729,53.423,31.729z M34.567,24.296l7.454,0.812
	c0.119,0.442,0.422,0.806,0.825,1.005l-0.564,6.465c-0.692,0.038-1.336,0.253-1.89,0.602l-6.49-7.631
	C34.206,25.186,34.434,24.764,34.567,24.296z M30.765,26.725c0.175,0.028,0.351,0.054,0.534,0.054c0.637,0,1.227-0.186,1.737-0.49
	l6.488,7.63c-0.447,0.507-0.769,1.126-0.913,1.812l-8.828-0.557c-0.123-0.79-0.589-1.459-1.246-1.857L30.765,26.725z M84.029,16.325
	c-7.525,0-10.704,6.713-10.704,12.243S76.504,40.81,84.029,40.81c7.526,0,10.704-6.713,10.704-12.242S91.556,16.325,84.029,16.325z
	 M84.029,39.593c-6.586,0-9.485-6.008-9.485-11.025c0-5.02,2.899-11.026,9.485-11.026c6.588,0,9.485,6.007,9.485,11.026
	C93.515,33.585,90.617,39.593,84.029,39.593z M120.823,24.009l6.9,16.224h-1.317l-6.241-14.677l-6.241,14.677h-1.318l6.9-16.224
	H120.823z M137.683,25.276c-0.527-0.461-1.219-0.823-1.878-1.021c-0.625-0.165-1.267-0.247-1.876-0.247
	c-1.17,0-2.322,0.262-3.359,0.707l0.46,1.12c0.856-0.361,1.91-0.609,2.932-0.609c1.449,0,2.635,0.494,3.458,1.513
	c0.657,0.807,0.938,1.729,0.971,2.832v0.362c-2.059,0.263-5.303,0.872-7.459,2.171c-1.697,1.021-2.619,2.616-2.619,4.181
	c0,1.991,1.73,3.899,3.985,3.948c2.355,0.05,4.43-1.168,6.043-2.023l0.445,2.023h0.822V29.571
	C139.608,27.843,138.869,26.296,137.683,25.276z M138.391,36.729c-1.121,0.724-3.953,2.386-6.078,2.286
	c-1.679-0.082-2.782-1.415-2.782-2.798c0-0.871,0.511-1.941,1.483-2.697c1.629-1.268,5.203-2.139,7.377-2.336V36.729z
	 M148.35,30.624l7.459,9.609h-1.531l-6.75-8.705l-2.883,3.127v5.578h-1.219V24.009h1.219v8.837l8.117-8.837l0.874,0.839
	L148.35,30.624z M163.48,23.548c-5.353,0-7.33,4.048-7.33,8.574c0,4.525,1.978,8.572,7.33,8.572c5.352,0,7.327-4.047,7.327-8.572
	C170.808,27.596,168.832,23.548,163.48,23.548z M163.48,39.478c-4.545,0-6.111-3.621-6.111-7.355c0-3.736,1.566-7.356,6.111-7.356
	s6.108,3.62,6.108,7.356C169.589,35.856,168.025,39.478,163.48,39.478z M104.675,23.548c-3.05,0-5,1.317-6.117,3.285v-1.864h0.005
	c-0.005-0.083-0.004-0.17-0.005-0.255v-0.172c0.003-0.117,0.009-0.235,0.022-0.357c0.342-3.109,3.086-4.38,6.094-4.296v-0.005
	c0.043,0,0.086,0,0.129-0.001c1.994-0.082,4.446-1.101,5.962-3.225L109.81,15.9c-1.383,1.991-3.656,2.715-5.039,2.765
	c-0.074,0.003-0.147,0.001-0.222,0.002v0.005c-3.56-0.058-6.866,1.704-7.188,5.496c-0.006,0.076-0.007,0.15-0.01,0.225h-0.013v7.729
	h0.007l0,0c0,4.525,1.977,8.572,7.329,8.572c5.352,0,7.328-4.047,7.328-8.572C112.003,27.596,110.027,23.548,104.675,23.548z
	 M104.675,39.478c-4.545,0-6.11-3.621-6.11-7.355c0-3.736,1.565-7.356,6.11-7.356c4.545,0,6.109,3.62,6.109,7.356
	C110.784,35.856,109.221,39.478,104.675,39.478z M223.707,25.287c-0.527-0.461-1.219-0.823-1.878-1.02
	c-0.624-0.165-1.267-0.247-1.876-0.247c-1.17,0-2.322,0.263-3.359,0.707l0.461,1.12c0.855-0.362,1.91-0.608,2.932-0.608
	c1.448,0,2.635,0.493,3.458,1.513c0.657,0.807,0.938,1.729,0.972,2.832v0.361c-2.06,0.263-5.304,0.871-7.46,2.172
	c-1.697,1.02-2.619,2.615-2.619,4.18c0,1.991,1.73,3.898,3.985,3.949c2.355,0.049,4.431-1.169,6.044-2.024l0.444,2.024h0.822V29.583
	C225.633,27.854,224.893,26.307,223.707,25.287z M224.416,36.74c-1.121,0.724-3.953,2.386-6.078,2.286
	c-1.679-0.082-2.782-1.415-2.782-2.797c0-0.871,0.512-1.941,1.483-2.699c1.629-1.267,5.202-2.139,7.377-2.336V36.74z M259.021,24.02
	h1.219v16.225h-0.822l-0.462-2.123c-1.598,1.761-3.523,2.305-5.549,2.484c-3.294,0.231-6.817-0.18-6.817-4.869V24.003h1.218v11.734
	c0,3.668,2.801,3.883,5.633,3.651c2.914-0.247,4.939-1.907,5.581-3.636V24.02z M278.678,24.02v16.225h-0.823l-0.46-2.123
	c-1.598,1.761-3.524,2.305-5.551,2.484c-3.293,0.231-6.816-0.18-6.816-4.869V24.003h1.219v11.734c0,3.668,2.799,3.883,5.632,3.651
	c2.914-0.247,4.939-1.907,5.581-3.636V24.02H278.678z M211.345,24.02h1.218v5.403v0.34v10.482h-1.218V32.29h-11.214v7.955h-1.219
	V29.763v-0.34v-5.42h1.219v5.42v0.34v1.311h11.214v-1.311v-0.34V24.02z M241.487,24.02h1.219v5.403v0.34v10.482h-1.219V32.29
	h-11.214v7.955h-1.219V29.763v-0.34v-5.42h1.219v5.42v0.34v1.311h11.214v-1.311v-0.34V24.02z M274.84,20.499h-5.974v-1.218h5.974
	V20.499z M196.023,35.323c0,3.535-2.916,5.387-5.798,5.387c-2.162,0-3.815-1.06-4.782-3.062l-0.127-0.266h1.359l0.052,0.102
	c0.68,1.339,1.891,2.018,3.6,2.018c2.161,0,4.488-1.308,4.488-4.178c0-2.77-2.098-4.031-4.046-4.031l-0.229,0.002v-1.207
	l0.179-0.005c1.922-0.054,3.036-1.015,3.14-2.706c0.006-0.104,0.011-0.207,0.01-0.314c-0.001-0.136-0.008-0.267-0.02-0.393
	c-0.196-1.14-1.38-1.946-2.874-1.946c-1.652,0.101-2.585,1.179-2.686,1.301l-0.137,0.166l-0.808-0.902l0.122-0.124
	c0.73-0.742,1.572-1.237,2.502-1.471c0.34-0.085,0.658-0.135,0.975-0.15c1.887-0.087,4.023,1.11,4.117,3.408l0.004,0.063
	c0.003,0.048,0.006,0.096,0.004,0.143c-0.035,1.518-0.752,2.768-1.982,3.487C194.858,31.483,196.023,33.315,196.023,35.323z"/>
</svg>
