<svg xmlns="http://www.w3.org/2000/svg" width="282" height="50"><path fill="#00C1FF" d="M52.48 22.922a16.293 16.293 0 00-3.607-7.418V7.908H23.617v8.125c-.285.362-.561.733-.817 1.122a10.618 10.618 0 00-2.435-.283c-5.857 0-10.622 4.765-10.622 10.621 0 .493.035.988.104 1.479-3.77.91-6.524 4.339-6.524 8.274 0 4.698 3.822 8.521 8.521 8.521h39.688a8.461 8.461 0 003.9-.95 11.484 11.484 0 006.905-10.531c-.001-5.783-4.198-10.57-9.857-11.364zm2.295 20.526a6.916 6.916 0 01-3.244.801H11.843c-3.86 0-7.001-3.141-7.001-7.002 0-3.45 2.576-6.425 5.992-6.92l.805-.115-.171-.795a9.196 9.196 0 01-.205-1.924c0-5.019 4.083-9.102 9.103-9.102.867 0 1.73.124 2.564.368l.558.164.303-.495a15.113 15.113 0 011.724-2.294h21.874a14.777 14.777 0 013.698 7.602l.095.58.586.053a9.905 9.905 0 019.051 9.918c-.002 3.967-2.354 7.554-6.044 9.161zm5.584-37.295H11.125V4h50.241v6.226l2.278 7.344h-5.562l2.278-7.344V6.153zm-6.936 25.576c-.751 0-1.362.571-1.439 1.302L46.1 34.843a3.986 3.986 0 00-2.684-2.168l.564-6.464a1.574 1.574 0 001.14-1.51 1.575 1.575 0 00-2.976-.726l-7.454-.812a3.402 3.402 0 00-3.391-3.208 3.412 3.412 0 00-3.412 3.412c0 1.298.733 2.413 1.799 2.99l-2.23 6.598c-.095-.01-.188-.028-.286-.028-.514 0-.989.152-1.395.405l-4.203-4.315c.052-.142.085-.294.085-.454a1.322 1.322 0 10-1.322 1.322c.148 0 .288-.029.42-.074l4.2 4.312a2.635 2.635 0 00-.439 1.457l.001.016-9.194 2.078a1.83 1.83 0 00-3.408.94 1.831 1.831 0 003.657.172l9.202-2.08a2.648 2.648 0 002.395 1.528c1.21 0 2.219-.815 2.538-1.923l8.834.559a3.978 3.978 0 107.892-.935l5.884-1.813a1.447 1.447 0 002.559-.936c0-.803-.649-1.457-1.453-1.457zm-18.856-7.433l7.454.812c.119.442.422.806.825 1.005l-.564 6.465a3.94 3.94 0 00-1.89.602l-6.49-7.631c.304-.363.532-.785.665-1.253zm-3.802 2.429c.175.028.351.054.534.054a3.38 3.38 0 001.737-.49l6.488 7.63a3.974 3.974 0 00-.913 1.812l-8.828-.557a2.643 2.643 0 00-1.246-1.857l2.228-6.592zm53.264-10.4c-7.525 0-10.704 6.713-10.704 12.243S76.504 40.81 84.029 40.81c7.526 0 10.704-6.713 10.704-12.242s-3.177-12.243-10.704-12.243zm0 23.268c-6.586 0-9.485-6.008-9.485-11.025 0-5.02 2.899-11.026 9.485-11.026 6.588 0 9.485 6.007 9.485 11.026.001 5.017-2.897 11.025-9.485 11.025zm36.794-15.584l6.9 16.224h-1.317l-6.241-14.677-6.241 14.677h-1.318l6.9-16.224h1.317zm16.86 1.267a5.234 5.234 0 00-1.878-1.021 7.419 7.419 0 00-1.876-.247c-1.17 0-2.322.262-3.359.707l.46 1.12a7.788 7.788 0 012.932-.609c1.449 0 2.635.494 3.458 1.513.657.807.938 1.729.971 2.832v.362c-2.059.263-5.303.872-7.459 2.171-1.697 1.021-2.619 2.616-2.619 4.181 0 1.991 1.73 3.899 3.985 3.948 2.355.05 4.43-1.168 6.043-2.023l.445 2.023h.822V29.571c0-1.728-.739-3.275-1.925-4.295zm.708 11.453c-1.121.724-3.953 2.386-6.078 2.286-1.679-.082-2.782-1.415-2.782-2.798 0-.871.511-1.941 1.483-2.697 1.629-1.268 5.203-2.139 7.377-2.336v5.545zm9.959-6.105l7.459 9.609h-1.531l-6.75-8.705-2.883 3.127v5.578h-1.219V24.009h1.219v8.837l8.117-8.837.874.839-5.286 5.776zm15.13-7.076c-5.353 0-7.33 4.048-7.33 8.574 0 4.525 1.978 8.572 7.33 8.572s7.327-4.047 7.327-8.572c.001-4.526-1.975-8.574-7.327-8.574zm0 15.93c-4.545 0-6.111-3.621-6.111-7.355 0-3.736 1.566-7.356 6.111-7.356s6.108 3.62 6.108 7.356c.001 3.733-1.563 7.355-6.108 7.355zm-58.805-15.93c-3.05 0-5 1.317-6.117 3.285v-1.864h.005c-.005-.083-.004-.17-.005-.255v-.172a4.41 4.41 0 01.022-.357c.342-3.109 3.086-4.38 6.094-4.296v-.005l.129-.001c1.994-.082 4.446-1.101 5.962-3.225l-.955-.758c-1.383 1.991-3.656 2.715-5.039 2.765-.074.003-.147.001-.222.002v.005c-3.56-.058-6.866 1.704-7.188 5.496-.006.076-.007.15-.01.225h-.013v7.729h.007c0 4.525 1.977 8.572 7.329 8.572 5.352 0 7.328-4.047 7.328-8.572.001-4.526-1.975-8.574-7.327-8.574zm0 15.93c-4.545 0-6.11-3.621-6.11-7.355 0-3.736 1.565-7.356 6.11-7.356s6.109 3.62 6.109 7.356c0 3.733-1.563 7.355-6.109 7.355zm119.032-14.191a5.216 5.216 0 00-1.878-1.02 7.413 7.413 0 00-1.876-.247 8.59 8.59 0 00-3.359.707l.461 1.12a7.765 7.765 0 012.932-.608c1.448 0 2.635.493 3.458 1.513.657.807.938 1.729.972 2.832v.361c-2.06.263-5.304.871-7.46 2.172-1.697 1.02-2.619 2.615-2.619 4.18 0 1.991 1.73 3.898 3.985 3.949 2.355.049 4.431-1.169 6.044-2.024l.444 2.024h.822V29.583c0-1.729-.74-3.276-1.926-4.296zm.709 11.453c-1.121.724-3.953 2.386-6.078 2.286-1.679-.082-2.782-1.415-2.782-2.797 0-.871.512-1.941 1.483-2.699 1.629-1.267 5.202-2.139 7.377-2.336v5.546zm34.605-12.72h1.219v16.225h-.822l-.462-2.123c-1.598 1.761-3.523 2.305-5.549 2.484-3.294.231-6.817-.18-6.817-4.869V24.003h1.218v11.734c0 3.668 2.801 3.883 5.633 3.651 2.914-.247 4.939-1.907 5.581-3.636V24.02zm19.657 0v16.225h-.823l-.46-2.123c-1.598 1.761-3.524 2.305-5.551 2.484-3.293.231-6.816-.18-6.816-4.869V24.003h1.219v11.734c0 3.668 2.799 3.883 5.632 3.651 2.914-.247 4.939-1.907 5.581-3.636V24.02h1.218zm-67.333 0h1.218v16.225h-1.218V32.29h-11.214v7.955h-1.219V24.003h1.219v7.071h11.214V24.02zm30.142 0h1.219v16.225h-1.219V32.29h-11.214v7.955h-1.219V24.003h1.219v7.071h11.214V24.02zm33.353-3.521h-5.974v-1.218h5.974v1.218zm-78.817 14.824c0 3.535-2.916 5.387-5.798 5.387-2.162 0-3.815-1.06-4.782-3.062l-.127-.266h1.359l.052.102c.68 1.339 1.891 2.018 3.6 2.018 2.161 0 4.488-1.308 4.488-4.178 0-2.77-2.098-4.031-4.046-4.031l-.229.002v-1.207l.179-.005c1.922-.054 3.036-1.015 3.14-2.706a4.491 4.491 0 00-.01-.707c-.196-1.14-1.38-1.946-2.874-1.946-1.652.101-2.585 1.179-2.686 1.301l-.137.166-.808-.902.122-.124c.73-.742 1.572-1.237 2.502-1.471.34-.085.658-.135.975-.15 1.887-.087 4.023 1.11 4.117 3.408l.004.063c.003.048.006.096.004.143-.035 1.518-.752 2.768-1.982 3.487 1.772.838 2.937 2.67 2.937 4.678z"/></svg>